<svg version="1.1" xmlns="http://www.w3.org/2000/svg" xmlns:xlink="http://www.w3.org/1999/xlink" width="1063.6533203125" height="892"><defs/><g><g transform="translate(-102,-6) scale(1,1)"><rect fill="#C0C0C0" stroke="none" x="447" y="23" width="119.89990234375" height="88" opacity="0.2"/></g><g transform="translate(-102,-6) scale(1,1)"><rect fill="#ffffff" stroke="none" x="440" y="16" width="119.89990234375" height="88"/></g><g transform="translate(-102,-6) scale(1,1)"><path fill="none" stroke="#000000" d="M 440 16 L 559.89990234375 16 L 559.89990234375 104 L 440 104 L 440 16 Z Z" stroke-miterlimit="10"/></g><g transform="translate(-102,-6) scale(1,1)"><path fill="none" stroke="#000000" d="M 440 41 L 559.89990234375 41" stroke-miterlimit="10"/></g><g transform="translate(-102,-6) scale(1,1)"><path fill="none" stroke="#000000" d="M 440 51 L 559.89990234375 51" stroke-miterlimit="10"/></g><g transform="translate(-102,-6) scale(1,1)"><g><path fill="none" stroke="none"/><text fill="#000000" stroke="none" font-family="Arial" font-size="13px" font-style="normal" font-weight="bold" text-decoration="none" x="485.861328125" y="35.5">Main</text></g></g><g transform="translate(-102,-6) scale(1,1)"><g><path fill="none" stroke="none"/><text fill="#000000" stroke="none" font-family="Arial" font-size="13px" font-style="normal" font-weight="normal" text-decoration="none" x="445" y="68.5">+main(args: String)</text></g></g><g transform="translate(-102,-6) scale(1,1)"><rect fill="#C0C0C0" stroke="none" x="663" y="127" width="174.08984375" height="205" opacity="0.2"/></g><g transform="translate(-102,-6) scale(1,1)"><rect fill="#ffffff" stroke="none" x="656" y="120" width="174.08984375" height="205"/></g><g transform="translate(-102,-6) scale(1,1)"><path fill="none" stroke="#000000" d="M 656 120 L 830.08984375 120 L 830.08984375 325 L 656 325 L 656 120 Z Z" stroke-miterlimit="10"/></g><g transform="translate(-102,-6) scale(1,1)"><path fill="none" stroke="#000000" d="M 656 145 L 830.08984375 145" stroke-miterlimit="10"/></g><g transform="translate(-102,-6) scale(1,1)"><path fill="none" stroke="#000000" d="M 656 213 L 830.08984375 213" stroke-miterlimit="10"/></g><g transform="translate(-102,-6) scale(1,1)"><g><path fill="none" stroke="none"/><text fill="#000000" stroke="none" font-family="Arial" font-size="13px" font-style="normal" font-weight="bold" text-decoration="none" x="712.32861328125" y="139.5">Estudiante</text></g></g><g transform="translate(-102,-6) scale(1,1)"><g><path fill="none" stroke="none"/><text fill="#000000" stroke="none" font-family="Arial" font-size="13px" font-style="normal" font-weight="normal" text-decoration="none" x="661" y="162.5">#nombre: String</text></g></g><g transform="translate(-102,-6) scale(1,1)"><g><path fill="none" stroke="none"/><text fill="#000000" stroke="none" font-family="Arial" font-size="13px" font-style="normal" font-weight="normal" text-decoration="none" x="661" y="177.5">#dpi: String</text></g></g><g transform="translate(-102,-6) scale(1,1)"><g><path fill="none" stroke="none"/><text fill="#000000" stroke="none" font-family="Arial" font-size="13px" font-style="normal" font-weight="normal" text-decoration="none" x="661" y="192.5">#notaFinal: float</text></g></g><g transform="translate(-102,-6) scale(1,1)"><g><path fill="none" stroke="none"/><text fill="#000000" stroke="none" font-family="Arial" font-size="13px" font-style="normal" font-weight="normal" text-decoration="none" x="661" y="207.5">#tipo: String</text></g></g><g transform="translate(-102,-6) scale(1,1)"><g><path fill="none" stroke="none"/><text fill="#000000" stroke="none" font-family="Arial" font-size="13px" font-style="normal" font-weight="normal" text-decoration="none" x="661" y="230.5">«create»+Estudiante()</text></g></g><g transform="translate(-102,-6) scale(1,1)"><g><path fill="none" stroke="none"/><text fill="#000000" stroke="none" font-family="Arial" font-size="13px" font-style="normal" font-weight="normal" text-decoration="none" x="661" y="245.5">+getNombre(): String</text></g></g><g transform="translate(-102,-6) scale(1,1)"><g><path fill="none" stroke="none"/><text fill="#000000" stroke="none" font-family="Arial" font-size="13px" font-style="normal" font-weight="normal" text-decoration="none" x="661" y="260.5">+setNombre(nombre: String)</text></g></g><g transform="translate(-102,-6) scale(1,1)"><g><path fill="none" stroke="none"/><text fill="#000000" stroke="none" font-family="Arial" font-size="13px" font-style="normal" font-weight="normal" text-decoration="none" x="661" y="275.5">+getDpi(): String</text></g></g><g transform="translate(-102,-6) scale(1,1)"><g><path fill="none" stroke="none"/><text fill="#000000" stroke="none" font-family="Arial" font-size="13px" font-style="normal" font-weight="normal" text-decoration="none" x="661" y="290.5">+setDpi(dpi: String)</text></g></g><g transform="translate(-102,-6) scale(1,1)"><g><path fill="none" stroke="none"/><text fill="#000000" stroke="none" font-family="Arial" font-size="13px" font-style="normal" font-weight="normal" text-decoration="none" x="661" y="305.5">+getTipo(): String</text></g></g><g transform="translate(-102,-6) scale(1,1)"><g><path fill="none" stroke="none"/><text fill="#000000" stroke="none" font-family="Arial" font-size="13px" font-style="normal" font-weight="normal" text-decoration="none" x="661" y="320.5">+setTipo(tipo: String)</text></g></g><g transform="translate(-102,-6) scale(1,1)"><rect fill="#C0C0C0" stroke="none" x="119" y="135" width="296.21240234375" height="215" opacity="0.2"/></g><g transform="translate(-102,-6) scale(1,1)"><rect fill="#ffffff" stroke="none" x="112" y="128" width="296.21240234375" height="215"/></g><g transform="translate(-102,-6) scale(1,1)"><path fill="none" stroke="#000000" d="M 112 128 L 408.21240234375 128 L 408.21240234375 343 L 112 343 L 112 128 Z Z" stroke-miterlimit="10"/></g><g transform="translate(-102,-6) scale(1,1)"><path fill="none" stroke="#000000" d="M 112 153 L 408.21240234375 153" stroke-miterlimit="10"/></g><g transform="translate(-102,-6) scale(1,1)"><path fill="none" stroke="#000000" d="M 112 176 L 408.21240234375 176" stroke-miterlimit="10"/></g><g transform="translate(-102,-6) scale(1,1)"><g><path fill="none" stroke="none"/><text fill="#000000" stroke="none" font-family="Arial" font-size="13px" font-style="normal" font-weight="bold" text-decoration="none" x="220.725341796875" y="147.5">ArrEstudiante</text></g></g><g transform="translate(-102,-6) scale(1,1)"><g><path fill="none" stroke="none"/><text fill="#000000" stroke="none" font-family="Arial" font-size="13px" font-style="normal" font-weight="normal" text-decoration="none" x="117" y="170.5">+arrEstudiantes[*]: Estudiante</text></g></g><g transform="translate(-102,-6) scale(1,1)"><g><path fill="none" stroke="none"/><text fill="#000000" stroke="none" font-family="Arial" font-size="13px" font-style="normal" font-weight="normal" text-decoration="none" x="117" y="193.5">«create»+Estudiante()</text></g></g><g transform="translate(-102,-6) scale(1,1)"><g><path fill="none" stroke="none"/><text fill="#000000" stroke="none" font-family="Arial" font-size="13px" font-style="normal" font-weight="normal" text-decoration="none" x="117" y="208.5">+addEstudiante()</text></g></g><g transform="translate(-102,-6) scale(1,1)"><g><path fill="none" stroke="none"/><text fill="#000000" stroke="none" font-family="Arial" font-size="13px" font-style="normal" font-weight="normal" text-decoration="none" x="117" y="223.5">+ordenarEscalafon(arrEstudiante): void</text></g></g><g transform="translate(-102,-6) scale(1,1)"><g><path fill="none" stroke="none"/><text fill="#000000" stroke="none" font-family="Arial" font-size="13px" font-style="normal" font-weight="normal" text-decoration="none" x="117" y="238.5">+verificarRendimientoSecundaria(valor int): String</text></g></g><g transform="translate(-102,-6) scale(1,1)"><g><path fill="none" stroke="none"/><text fill="#000000" stroke="none" font-family="Arial" font-size="13px" font-style="normal" font-weight="normal" text-decoration="none" x="117" y="253.5">+verificarRendimientBach(): String</text></g></g><g transform="translate(-102,-6) scale(1,1)"><rect fill="#C0C0C0" stroke="none" x="639" y="439" width="232" height="376" opacity="0.2"/></g><g transform="translate(-102,-6) scale(1,1)"><rect fill="#ffffff" stroke="none" x="632" y="432" width="232" height="376"/></g><g transform="translate(-102,-6) scale(1,1)"><path fill="none" stroke="#000000" d="M 632 432 L 864 432 L 864 808 L 632 808 L 632 432 Z Z" stroke-miterlimit="10"/></g><g transform="translate(-102,-6) scale(1,1)"><path fill="none" stroke="#000000" d="M 632 457 L 864 457" stroke-miterlimit="10"/></g><g transform="translate(-102,-6) scale(1,1)"><path fill="none" stroke="#000000" d="M 632 555 L 864 555" stroke-miterlimit="10"/></g><g transform="translate(-102,-6) scale(1,1)"><g><path fill="none" stroke="none"/><text fill="#000000" stroke="none" font-family="Arial" font-size="13px" font-style="normal" font-weight="bold" text-decoration="none" x="715.115966796875" y="451.5">Secundaria</text></g></g><g transform="translate(-102,-6) scale(1,1)"><g><path fill="none" stroke="none"/><text fill="#000000" stroke="none" font-family="Arial" font-size="13px" font-style="normal" font-weight="normal" text-decoration="none" x="637" y="474.5">#promSeptimo: float</text></g></g><g transform="translate(-102,-6) scale(1,1)"><g><path fill="none" stroke="none"/><text fill="#000000" stroke="none" font-family="Arial" font-size="13px" font-style="normal" font-weight="normal" text-decoration="none" x="637" y="489.5">#promOctavo: float</text></g></g><g transform="translate(-102,-6) scale(1,1)"><g><path fill="none" stroke="none"/><text fill="#000000" stroke="none" font-family="Arial" font-size="13px" font-style="normal" font-weight="normal" text-decoration="none" x="637" y="504.5">#promNoveno: float</text></g></g><g transform="translate(-102,-6) scale(1,1)"><g><path fill="none" stroke="none"/><text fill="#000000" stroke="none" font-family="Arial" font-size="13px" font-style="normal" font-weight="normal" text-decoration="none" x="637" y="519.5">#notaMate: float</text></g></g><g transform="translate(-102,-6) scale(1,1)"><g><path fill="none" stroke="none"/><text fill="#000000" stroke="none" font-family="Arial" font-size="13px" font-style="normal" font-weight="normal" text-decoration="none" x="637" y="534.5">#notaHistoria: float</text></g></g><g transform="translate(-102,-6) scale(1,1)"><g><path fill="none" stroke="none"/><text fill="#000000" stroke="none" font-family="Arial" font-size="13px" font-style="normal" font-weight="normal" text-decoration="none" x="637" y="549.5">#notaEspanol: float</text></g></g><g transform="translate(-102,-6) scale(1,1)"><g><path fill="none" stroke="none"/><text fill="#000000" stroke="none" font-family="Arial" font-size="13px" font-style="normal" font-weight="normal" text-decoration="none" x="637" y="572.5">«create»+Secundaria()</text></g></g><g transform="translate(-102,-6) scale(1,1)"><g><path fill="none" stroke="none"/><text fill="#000000" stroke="none" font-family="Arial" font-size="13px" font-style="normal" font-weight="normal" text-decoration="none" x="637" y="587.5">+getPromSeptimo(): float</text></g></g><g transform="translate(-102,-6) scale(1,1)"><g><path fill="none" stroke="none"/><text fill="#000000" stroke="none" font-family="Arial" font-size="13px" font-style="normal" font-weight="normal" text-decoration="none" x="637" y="602.5">+setPromSeptimo(promSeptimo: float)</text></g></g><g transform="translate(-102,-6) scale(1,1)"><g><path fill="none" stroke="none"/><text fill="#000000" stroke="none" font-family="Arial" font-size="13px" font-style="normal" font-weight="normal" text-decoration="none" x="637" y="617.5">+getPromOctavo(): float</text></g></g><g transform="translate(-102,-6) scale(1,1)"><g><path fill="none" stroke="none"/><text fill="#000000" stroke="none" font-family="Arial" font-size="13px" font-style="normal" font-weight="normal" text-decoration="none" x="637" y="632.5">+setPromOctavo(promOctavo: float)</text></g></g><g transform="translate(-102,-6) scale(1,1)"><g><path fill="none" stroke="none"/><text fill="#000000" stroke="none" font-family="Arial" font-size="13px" font-style="normal" font-weight="normal" text-decoration="none" x="637" y="647.5">+getPromNoveno(): float</text></g></g><g transform="translate(-102,-6) scale(1,1)"><g><path fill="none" stroke="none"/><text fill="#000000" stroke="none" font-family="Arial" font-size="13px" font-style="normal" font-weight="normal" text-decoration="none" x="637" y="662.5">+setPromNoveno(promNoveno: float)</text></g></g><g transform="translate(-102,-6) scale(1,1)"><g><path fill="none" stroke="none"/><text fill="#000000" stroke="none" font-family="Arial" font-size="13px" font-style="normal" font-weight="normal" text-decoration="none" x="637" y="677.5">+getNotaMate(): float</text></g></g><g transform="translate(-102,-6) scale(1,1)"><g><path fill="none" stroke="none"/><text fill="#000000" stroke="none" font-family="Arial" font-size="13px" font-style="normal" font-weight="normal" text-decoration="none" x="637" y="692.5">+setNotaMate(notaMate: float)</text></g></g><g transform="translate(-102,-6) scale(1,1)"><g><path fill="none" stroke="none"/><text fill="#000000" stroke="none" font-family="Arial" font-size="13px" font-style="normal" font-weight="normal" text-decoration="none" x="637" y="707.5">+getNotaHistoria(): float</text></g></g><g transform="translate(-102,-6) scale(1,1)"><g><path fill="none" stroke="none"/><text fill="#000000" stroke="none" font-family="Arial" font-size="13px" font-style="normal" font-weight="normal" text-decoration="none" x="637" y="722.5">+setNotaHistoria(notaHistoria: float)</text></g></g><g transform="translate(-102,-6) scale(1,1)"><g><path fill="none" stroke="none"/><text fill="#000000" stroke="none" font-family="Arial" font-size="13px" font-style="normal" font-weight="normal" text-decoration="none" x="637" y="737.5">+getNotaEspanol(): float</text></g></g><g transform="translate(-102,-6) scale(1,1)"><g><path fill="none" stroke="none"/><text fill="#000000" stroke="none" font-family="Arial" font-size="13px" font-style="normal" font-weight="normal" text-decoration="none" x="637" y="752.5">+setNotaEspanol(notaEspanol: float)</text></g></g><g transform="translate(-102,-6) scale(1,1)"><g><path fill="none" stroke="none"/><text fill="#000000" stroke="none" font-family="Arial" font-size="13px" font-style="normal" font-weight="normal" text-decoration="none" x="637" y="767.5">+calcularPromedio(): void</text></g></g><g transform="translate(-102,-6) scale(1,1)"><g><path fill="none" stroke="none"/><text fill="#000000" stroke="none" font-family="Arial" font-size="13px" font-style="normal" font-weight="normal" text-decoration="none" x="637" y="782.5">+calcularNota(): void</text></g></g><g transform="translate(-102,-6) scale(1,1)"><rect fill="#C0C0C0" stroke="none" x="431" y="135" width="156.75439453125" height="87" opacity="0.2"/></g><g transform="translate(-102,-6) scale(1,1)"><rect fill="#ffffff" stroke="none" x="424" y="128" width="156.75439453125" height="87"/></g><g transform="translate(-102,-6) scale(1,1)"><path fill="none" stroke="#000000" d="M 424 128 L 580.75439453125 128 L 580.75439453125 215 L 424 215 L 424 128 Z Z" stroke-miterlimit="10"/></g><g transform="translate(-102,-6) scale(1,1)"><path fill="none" stroke="#000000" d="M 424 166 L 580.75439453125 166" stroke-miterlimit="10"/></g><g transform="translate(-102,-6) scale(1,1)"><path fill="none" stroke="#000000" d="M 424 176 L 580.75439453125 176" stroke-miterlimit="10"/></g><g transform="translate(-102,-6) scale(1,1)"><g><path fill="none" stroke="none"/><text fill="#000000" stroke="none" font-family="Arial" font-size="13px" font-style="normal" font-weight="normal" text-decoration="none" x="470.216796875" y="145.5">«interface»</text></g></g><g transform="translate(-102,-6) scale(1,1)"><g><path fill="none" stroke="none"/><text fill="#000000" stroke="none" font-family="Arial" font-size="13px" font-style="normal" font-weight="bold" text-decoration="none" x="460.101806640625" y="160.5">NotaEscalafon</text></g></g><g transform="translate(-102,-6) scale(1,1)"><g><path fill="none" stroke="none"/><text fill="#000000" stroke="none" font-family="Arial" font-size="13px" font-style="normal" font-weight="normal" text-decoration="none" x="429" y="193.5">+calcularPromedio(): void</text></g></g><g transform="translate(-102,-6) scale(1,1)"><g><path fill="none" stroke="none"/><text fill="#000000" stroke="none" font-family="Arial" font-size="13px" font-style="normal" font-weight="normal" text-decoration="none" x="429" y="208.5">+calcularNota(): void</text></g></g><g transform="translate(-102,-6) scale(1,1)"><rect fill="#C0C0C0" stroke="none" x="943" y="471" width="219.6533203125" height="136" opacity="0.2"/></g><g transform="translate(-102,-6) scale(1,1)"><rect fill="#ffffff" stroke="none" x="936" y="464" width="219.6533203125" height="136"/></g><g transform="translate(-102,-6) scale(1,1)"><path fill="none" stroke="#000000" d="M 936 464 L 1155.6533203125 464 L 1155.6533203125 600 L 936 600 L 936 464 Z Z" stroke-miterlimit="10"/></g><g transform="translate(-102,-6) scale(1,1)"><path fill="none" stroke="#000000" d="M 936 489 L 1155.6533203125 489" stroke-miterlimit="10"/></g><g transform="translate(-102,-6) scale(1,1)"><path fill="none" stroke="#000000" d="M 936 512 L 1155.6533203125 512" stroke-miterlimit="10"/></g><g transform="translate(-102,-6) scale(1,1)"><g><path fill="none" stroke="none"/><text fill="#000000" stroke="none" font-family="Arial" font-size="13px" font-style="normal" font-weight="bold" text-decoration="none" x="973.92041015625" y="483.5">SecundariaDesvinculado</text></g></g><g transform="translate(-102,-6) scale(1,1)"><g><path fill="none" stroke="none"/><text fill="#000000" stroke="none" font-family="Arial" font-size="13px" font-style="normal" font-weight="normal" text-decoration="none" x="941" y="506.5">-notaAptitud: float</text></g></g><g transform="translate(-102,-6) scale(1,1)"><g><path fill="none" stroke="none"/><text fill="#000000" stroke="none" font-family="Arial" font-size="13px" font-style="normal" font-weight="normal" text-decoration="none" x="941" y="529.5">«create»+SecundariaDesvinculado()</text></g></g><g transform="translate(-102,-6) scale(1,1)"><g><path fill="none" stroke="none"/><text fill="#000000" stroke="none" font-family="Arial" font-size="13px" font-style="normal" font-weight="normal" text-decoration="none" x="941" y="544.5">+getNotaAptitud(): float</text></g></g><g transform="translate(-102,-6) scale(1,1)"><g><path fill="none" stroke="none"/><text fill="#000000" stroke="none" font-family="Arial" font-size="13px" font-style="normal" font-weight="normal" text-decoration="none" x="941" y="559.5">+setNotaAptitud(notaAptitud: float)</text></g></g><g transform="translate(-102,-6) scale(1,1)"><g><path fill="none" stroke="none"/><text fill="#000000" stroke="none" font-family="Arial" font-size="13px" font-style="normal" font-weight="normal" text-decoration="none" x="941" y="574.5">+calcularPromedio(): void</text></g></g><g transform="translate(-102,-6) scale(1,1)"><g><path fill="none" stroke="none"/><text fill="#000000" stroke="none" font-family="Arial" font-size="13px" font-style="normal" font-weight="normal" text-decoration="none" x="941" y="589.5">+calcularNota(): void</text></g></g><g transform="translate(-102,-6) scale(1,1)"><rect fill="#C0C0C0" stroke="none" x="271" y="415" width="239.1279296875" height="232" opacity="0.2"/></g><g transform="translate(-102,-6) scale(1,1)"><rect fill="#ffffff" stroke="none" x="264" y="408" width="239.1279296875" height="232"/></g><g transform="translate(-102,-6) scale(1,1)"><path fill="none" stroke="#000000" d="M 264 408 L 503.1279296875 408 L 503.1279296875 640 L 264 640 L 264 408 Z Z" stroke-miterlimit="10"/></g><g transform="translate(-102,-6) scale(1,1)"><path fill="none" stroke="#000000" d="M 264 433 L 503.1279296875 433" stroke-miterlimit="10"/></g><g transform="translate(-102,-6) scale(1,1)"><path fill="none" stroke="#000000" d="M 264 486 L 503.1279296875 486" stroke-miterlimit="10"/></g><g transform="translate(-102,-6) scale(1,1)"><g><path fill="none" stroke="none"/><text fill="#000000" stroke="none" font-family="Arial" font-size="13px" font-style="normal" font-weight="bold" text-decoration="none" x="349.600830078125" y="427.5">Bachillerato</text></g></g><g transform="translate(-102,-6) scale(1,1)"><g><path fill="none" stroke="none"/><text fill="#000000" stroke="none" font-family="Arial" font-size="13px" font-style="normal" font-weight="normal" text-decoration="none" x="269" y="450.5">#promDecimo: float</text></g></g><g transform="translate(-102,-6) scale(1,1)"><g><path fill="none" stroke="none"/><text fill="#000000" stroke="none" font-family="Arial" font-size="13px" font-style="normal" font-weight="normal" text-decoration="none" x="269" y="465.5">#promOnceavo: float</text></g></g><g transform="translate(-102,-6) scale(1,1)"><g><path fill="none" stroke="none"/><text fill="#000000" stroke="none" font-family="Arial" font-size="13px" font-style="normal" font-weight="normal" text-decoration="none" x="269" y="480.5">#notaHistoria: float</text></g></g><g transform="translate(-102,-6) scale(1,1)"><g><path fill="none" stroke="none"/><text fill="#000000" stroke="none" font-family="Arial" font-size="13px" font-style="normal" font-weight="normal" text-decoration="none" x="269" y="503.5">«create»+Bachillerato()</text></g></g><g transform="translate(-102,-6) scale(1,1)"><g><path fill="none" stroke="none"/><text fill="#000000" stroke="none" font-family="Arial" font-size="13px" font-style="normal" font-weight="normal" text-decoration="none" x="269" y="518.5">+getPromDecimo(): float</text></g></g><g transform="translate(-102,-6) scale(1,1)"><g><path fill="none" stroke="none"/><text fill="#000000" stroke="none" font-family="Arial" font-size="13px" font-style="normal" font-weight="normal" text-decoration="none" x="269" y="533.5">+setPromDecimo(promDecimo: float)</text></g></g><g transform="translate(-102,-6) scale(1,1)"><g><path fill="none" stroke="none"/><text fill="#000000" stroke="none" font-family="Arial" font-size="13px" font-style="normal" font-weight="normal" text-decoration="none" x="269" y="548.5">+getPromOnceavo(): float</text></g></g><g transform="translate(-102,-6) scale(1,1)"><g><path fill="none" stroke="none"/><text fill="#000000" stroke="none" font-family="Arial" font-size="13px" font-style="normal" font-weight="normal" text-decoration="none" x="269" y="563.5">+setPromOnceavo(promOnceavo: float)</text></g></g><g transform="translate(-102,-6) scale(1,1)"><g><path fill="none" stroke="none"/><text fill="#000000" stroke="none" font-family="Arial" font-size="13px" font-style="normal" font-weight="normal" text-decoration="none" x="269" y="578.5">+getNotaHistoria(): float</text></g></g><g transform="translate(-102,-6) scale(1,1)"><g><path fill="none" stroke="none"/><text fill="#000000" stroke="none" font-family="Arial" font-size="13px" font-style="normal" font-weight="normal" text-decoration="none" x="269" y="593.5">+setNotaHistoria(notaHistoria: float)</text></g></g><g transform="translate(-102,-6) scale(1,1)"><g><path fill="none" stroke="none"/><text fill="#000000" stroke="none" font-family="Arial" font-size="13px" font-style="normal" font-weight="normal" text-decoration="none" x="269" y="608.5">+calcularPromedio(): void</text></g></g><g transform="translate(-102,-6) scale(1,1)"><g><path fill="none" stroke="none"/><text fill="#000000" stroke="none" font-family="Arial" font-size="13px" font-style="normal" font-weight="normal" text-decoration="none" x="269" y="623.5">+calcularNota(): void</text></g></g><g transform="translate(-102,-6) scale(1,1)"><rect fill="#C0C0C0" stroke="none" x="127" y="783" width="221.8115234375" height="112" opacity="0.2"/></g><g transform="translate(-102,-6) scale(1,1)"><rect fill="#ffffff" stroke="none" x="120" y="776" width="221.8115234375" height="112"/></g><g transform="translate(-102,-6) scale(1,1)"><path fill="none" stroke="#000000" d="M 120 776 L 341.8115234375 776 L 341.8115234375 888 L 120 888 L 120 776 Z Z" stroke-miterlimit="10"/></g><g transform="translate(-102,-6) scale(1,1)"><path fill="none" stroke="#000000" d="M 120 801 L 341.8115234375 801" stroke-miterlimit="10"/></g><g transform="translate(-102,-6) scale(1,1)"><path fill="none" stroke="#000000" d="M 120 811 L 341.8115234375 811" stroke-miterlimit="10"/></g><g transform="translate(-102,-6) scale(1,1)"><g><path fill="none" stroke="none"/><text fill="#000000" stroke="none" font-family="Arial" font-size="13px" font-style="normal" font-weight="bold" text-decoration="none" x="157.92041015625" y="795.5">BachilleratoDesvinculado</text></g></g><g transform="translate(-102,-6) scale(1,1)"><g><path fill="none" stroke="none"/><text fill="#000000" stroke="none" font-family="Arial" font-size="13px" font-style="normal" font-weight="normal" text-decoration="none" x="125" y="828.5">«create»+BachilleratoDesvinculado()</text></g></g><g transform="translate(-102,-6) scale(1,1)"><g><path fill="none" stroke="none"/><text fill="#000000" stroke="none" font-family="Arial" font-size="13px" font-style="normal" font-weight="normal" text-decoration="none" x="125" y="843.5">+calcularPromedio(): void</text></g></g><g transform="translate(-102,-6) scale(1,1)"><g><path fill="none" stroke="none"/><text fill="#000000" stroke="none" font-family="Arial" font-size="13px" font-style="normal" font-weight="normal" text-decoration="none" x="125" y="858.5">+calcularNota(): void</text></g></g><g transform="translate(-102,-6) scale(1,1)"><path fill="none" stroke="#000000" d="M 439 104 L 407 127" stroke-miterlimit="10" stroke-dasharray="3"/></g><g transform="translate(-102,-6) scale(1,1)"><path fill="none" stroke="#000000" d="M 412.79542189059964 117.65050348361163 L 407 127 L 417.7090745060982 124.48688973126177" stroke-miterlimit="10"/></g><g transform="translate(-102,-6) scale(1,1)"><path fill="none" stroke="#000000" d="M 501 127 L 500 105" stroke-miterlimit="10"/></g><g transform="translate(-102,-6) scale(1,1)"><path fill="#FFFFFF" stroke="none" d="M 504.66663910167813 114.9610481122565 L 500 105 L 496.25628748624484 115.34333682204893 L 500.9989685402103 126.97730788462658"/></g><g transform="translate(-102,-6) scale(1,1)"><path fill="none" stroke="#000000" d="M 504.66663910167813 114.9610481122565 L 500 105 L 496.25628748624484 115.34333682204893 L 500.9989685402103 126.97730788462658 L 504.66663910167813 114.9610481122565" stroke-miterlimit="10"/></g><g transform="translate(-102,-6) scale(1,1)"><path fill="none" stroke="#000000" d="M 746 431 L 744 326" stroke-miterlimit="10"/></g><g transform="translate(-102,-6) scale(1,1)"><path fill="#FFFFFF" stroke="none" d="M 752.8045879710954 346.16133008160034 L 744 326 L 735.9695706414751 346.481997078355"/></g><g transform="translate(-102,-6) scale(1,1)"><path fill="none" stroke="#000000" d="M 752.8045879710954 346.16133008160034 L 744 326 L 735.9695706414751 346.481997078355 L 752.8045879710954 346.16133008160034" stroke-miterlimit="10"/></g><g transform="translate(-102,-6) scale(1,1)"><path fill="none" stroke="#000000" d="M 504 422 L 655 296" stroke-miterlimit="10"/></g><g transform="translate(-102,-6) scale(1,1)"><path fill="#FFFFFF" stroke="none" d="M 644.7880532591372 315.48630657055827 L 655 296 L 634.0001636940983 302.55796272674183"/></g><g transform="translate(-102,-6) scale(1,1)"><path fill="none" stroke="#000000" d="M 644.7880532591372 315.48630657055827 L 655 296 L 634.0001636940983 302.55796272674183 L 644.7880532591372 315.48630657055827" stroke-miterlimit="10"/></g><g transform="translate(-102,-6) scale(1,1)"><path fill="none" stroke="#000000" d="M 935 565 L 865 585" stroke-miterlimit="10"/></g><g transform="translate(-102,-6) scale(1,1)"><path fill="#FFFFFF" stroke="none" d="M 882.2304235637123 571.321092740461 L 865 585 L 886.8561974270593 587.5113012621756"/></g><g transform="translate(-102,-6) scale(1,1)"><path fill="none" stroke="#000000" d="M 882.2304235637123 571.321092740461 L 865 585 L 886.8561974270593 587.5113012621756 L 882.2304235637123 571.321092740461" stroke-miterlimit="10"/></g><g transform="translate(-102,-6) scale(1,1)"><path fill="none" stroke="#000000" d="M 258 775 L 325 641" stroke-miterlimit="10"/></g><g transform="translate(-102,-6) scale(1,1)"><path fill="#FFFFFF" stroke="none" d="M 323.44044155800503 662.9446525938781 L 325 641 L 308.3800129900945 655.4144383099228"/></g><g transform="translate(-102,-6) scale(1,1)"><path fill="none" stroke="#000000" d="M 323.44044155800503 662.9446525938781 L 325 641 L 308.3800129900945 655.4144383099228 L 323.44044155800503 662.9446525938781" stroke-miterlimit="10"/></g><g transform="translate(-102,-6) scale(1,1)"><path fill="none" stroke="#000000" d="M 409 231 L 655 224" stroke-miterlimit="10"/></g><g transform="translate(-102,-6) scale(1,1)"><path fill="#FFFFFF" stroke="none" d="M 644.961171581423 228.49687936044197 L 655 224 L 644.7217024601096 220.08125024000225 L 633.0089013301966 224.62576297027897"/></g><g transform="translate(-102,-6) scale(1,1)"><path fill="none" stroke="#000000" d="M 644.961171581423 228.49687936044197 L 655 224 L 644.7217024601096 220.08125024000225 L 633.0089013301966 224.62576297027897 L 644.961171581423 228.49687936044197" stroke-miterlimit="10"/></g><g transform="translate(-102,-6) scale(1,1)"><path fill="none" stroke="#000000" d="M 561 101 L 655 164" stroke-miterlimit="10" stroke-dasharray="3"/></g><g transform="translate(-102,-6) scale(1,1)"><path fill="none" stroke="#000000" d="M 644.214387589973 161.83885101377277 L 655 164 L 648.9015834289359 154.8452572223044" stroke-miterlimit="10"/></g><g transform="translate(-102,-6) scale(1,1)"><rect fill="#C0C0C0" stroke="none" x="887" y="23" width="171.96337890625" height="184" opacity="0.2"/></g><g transform="translate(-102,-6) scale(1,1)"><rect fill="#ffffff" stroke="none" x="880" y="16" width="171.96337890625" height="184"/></g><g transform="translate(-102,-6) scale(1,1)"><path fill="none" stroke="#000000" d="M 880 16 L 1051.96337890625 16 L 1051.96337890625 200 L 880 200 L 880 16 Z Z" stroke-miterlimit="10"/></g><g transform="translate(-102,-6) scale(1,1)"><path fill="none" stroke="#000000" d="M 880 41 L 1051.96337890625 41" stroke-miterlimit="10"/></g><g transform="translate(-102,-6) scale(1,1)"><path fill="none" stroke="#000000" d="M 880 79 L 1051.96337890625 79" stroke-miterlimit="10"/></g><g transform="translate(-102,-6) scale(1,1)"><g><path fill="none" stroke="none"/><text fill="#000000" stroke="none" font-family="Arial" font-size="13px" font-style="normal" font-weight="bold" text-decoration="none" x="951.53759765625" y="35.5">Error</text></g></g><g transform="translate(-102,-6) scale(1,1)"><g><path fill="none" stroke="none"/><text fill="#000000" stroke="none" font-family="Arial" font-size="13px" font-style="normal" font-weight="normal" text-decoration="none" x="885" y="58.5">-cadena: String</text></g></g><g transform="translate(-102,-6) scale(1,1)"><g><path fill="none" stroke="none"/><text fill="#000000" stroke="none" font-family="Arial" font-size="13px" font-style="normal" font-weight="normal" text-decoration="none" x="885" y="73.5">-error1: boolean</text></g></g><g transform="translate(-102,-6) scale(1,1)"><g><path fill="none" stroke="none"/><text fill="#000000" stroke="none" font-family="Arial" font-size="13px" font-style="normal" font-weight="normal" text-decoration="none" x="885" y="96.5">«create»+Error()</text></g></g><g transform="translate(-102,-6) scale(1,1)"><g><path fill="none" stroke="none"/><text fill="#000000" stroke="none" font-family="Arial" font-size="13px" font-style="normal" font-weight="normal" text-decoration="none" x="885" y="111.5">+getCadena(): String</text></g></g><g transform="translate(-102,-6) scale(1,1)"><g><path fill="none" stroke="none"/><text fill="#000000" stroke="none" font-family="Arial" font-size="13px" font-style="normal" font-weight="normal" text-decoration="none" x="885" y="126.5">+setCadena(cadena: String)</text></g></g><g transform="translate(-102,-6) scale(1,1)"><g><path fill="none" stroke="none"/><text fill="#000000" stroke="none" font-family="Arial" font-size="13px" font-style="normal" font-weight="normal" text-decoration="none" x="885" y="141.5">+verificarString(cadena)</text></g></g><g transform="translate(-102,-6) scale(1,1)"><g><path fill="none" stroke="none"/><text fill="#000000" stroke="none" font-family="Arial" font-size="13px" font-style="normal" font-weight="normal" text-decoration="none" x="885" y="156.5">+verificarInt(cadena)</text></g></g><g transform="translate(-102,-6) scale(1,1)"><path fill="none" stroke="#000000" d="M 561 66 L 879 99" stroke-miterlimit="10" stroke-dasharray="3"/></g><g transform="translate(-102,-6) scale(1,1)"><path fill="none" stroke="#000000" d="M 868.457104372949 102.1380490431331 L 879 99 L 869.3261112506749 93.7639827668656" stroke-miterlimit="10"/></g></g></svg>